<?xml version="1.0" encoding="UTF-8"?>
<svg id="Layer_1" xmlns="http://www.w3.org/2000/svg" version="1.1" viewBox="0 0 352.8 352.2">
  <!-- Generator: Adobe Illustrator 29.1.0, SVG Export Plug-In . SVG Version: 2.1.0 Build 142)  -->
  <defs>
    <style>
      .st0 {
        fill: #efedef;
      }

      .st1 {
        fill: none;
      }

      .st2 {
        fill: #8db9c4;
      }

      .st3 {
        fill: #ffc850;
      }

      .st4 {
        fill: #e7f0ef;
      }

      .st5 {
        fill: #ffdc64;
      }
    </style>
  </defs>
  <path class="st5" d="M136.9,262c-.2,0-.3,0-.5.1.2,0,.3,0,.5-.1t0,0Z"/>
  <path class="st5" d="M3.7,212c.4,2.1.9,4.3,1.5,6.4-.5-2.1-1-4.2-1.5-6.4ZM128.8,345.7c-.9-.2-1.7-.5-2.6-.8.4.1.8.2,1.2.4.7.2,1.4.4,2.1.6-.2,0-.5-.1-.7-.2ZM114.8,341.1c-1.8-.7-3.5-1.4-5.3-2.1-2.9-1.2-5.8-2.5-8.6-3.8-.7-.4-1.5-.7-2.2-1.1-.8-.4-1.6-.8-2.4-1.2-.1,0-.2-.1-.3-.2-.8-.4-1.6-.8-2.4-1.2-.8-.4-1.7-.9-2.5-1.3,0,0,0,0,0,0-.8-.5-1.7-.9-2.5-1.4-.8-.5-1.7-1-2.5-1.5-.8-.5-1.6-1-2.5-1.5,0,0,0,0,0,0-.8-.5-1.6-1-2.4-1.6-4-2.6-8-5.4-11.8-8.3-1.4-1-2.7-2.1-4-3.2-.8-.6-1.6-1.3-2.3-1.9-.6-.5-1.1-.9-1.6-1.4-.8-.7-1.7-1.4-2.5-2.2-.6-.5-1.2-1.1-1.8-1.6-1.4-1.3-2.8-2.6-4.2-4-.5-.5-1.1-1.1-1.6-1.6-.8-.8-1.5-1.5-2.2-2.3-.6-.7-1.3-1.3-1.9-2-.6-.7-1.2-1.3-1.8-2-.6-.7-1.2-1.3-1.8-2,0,0,0,0,0,0-.6-.6-1.1-1.3-1.7-1.9-.1-.1-.2-.3-.3-.4-.5-.6-1-1.2-1.4-1.7-1.1-1.3-2.1-2.6-3.2-4-.4-.5-.8-1-1.2-1.5-1.6-2.1-3.1-4.2-4.6-6.3-.9-1.2-1.7-2.5-2.5-3.8-.1-.2-.3-.5-.4-.7-.4-.6-.8-1.3-1.2-1.9-.5-.8-1-1.6-1.5-2.5-.4-.7-.8-1.3-1.2-2-.3-.6-.6-1.1-.9-1.6-.3-.5-.5-.9-.8-1.4-.5-.8-.9-1.6-1.3-2.4-1.9-3.5-3.6-7-5.3-10.6-.4-.8-.7-1.6-1.1-2.4-.5-1.1-.9-2.1-1.4-3.2-.3-.6-.5-1.2-.8-1.9-.4-1.1-.9-2.2-1.3-3.4,17.5,46.7,54.3,83.9,100.7,102.1.4.1.7.3,1.1.4,1.7.7,3.4,1.3,5.2,1.9.4.1.7.3,1.1.4.4.1.8.3,1.2.4.9.3,1.8.6,2.7.9-1.2-.4-2.4-.8-3.6-1.2-1.6-.5-3.2-1.1-4.8-1.7ZM10.5,236.1c-.4-1-.7-1.9-1-2.9.3,1,.7,1.9,1,2.9ZM10.6,236.2c.2.5.4,1.1.6,1.6,0,0,0,.1,0,.2-.2-.6-.5-1.3-.7-1.9,0,0,0,0,0,0ZM7.6,227.2c-.3-1-.6-2.1-.9-3.1.5,1.8,1,3.6,1.6,5.4,0,.1,0,.3.1.4.3.9.6,1.8.9,2.7,0,.2.2.4.2.6-.4-1.1-.8-2.2-1.1-3.4-.3-.9-.6-1.8-.8-2.6ZM110.8,12.6c-.1,0-.3.1-.4.2.4-.2.8-.3,1.3-.5-.3.1-.6.2-.9.3ZM108.5,13.6c-.2,0-.3.1-.4.2.5-.2.9-.4,1.3-.6-.3.1-.6.2-.9.4ZM10.6,116c0,.1-.1.3-.2.4-.2.6-.4,1.2-.6,1.8.1-.3.2-.6.3-.9.2-.4.3-.9.5-1.3ZM9.6,118.6c0,.3-.2.5-.3.8,0,0,0,0,0,0,0,0,0,.1,0,.2-.2.5-.3,1-.5,1.5.3-.8.6-1.7.9-2.5,0-.1,0-.3.1-.4,0,.1,0,.2-.1.3ZM77.2,30.5c0,0-.2.1-.2.1-.3.2-.7.5-1,.7.6-.4,1.1-.8,1.7-1.2-.1.1-.3.2-.4.3ZM52.6,50.7c0,0-.1.1-.2.2.3-.3.6-.6,1-1-.3.2-.5.5-.8.7ZM7.1,126.4c.5-1.8,1.1-3.5,1.6-5.2-.6,1.7-1.1,3.5-1.6,5.2Z"/>
  <path class="st3" d="M136.9,262c-.2,0-.3,0-.5.1.2,0,.3,0,.5-.1t0,0Z"/>
  <path class="st4" d="M126.2,345c.4.1.8.2,1.2.4.5.1,1,.3,1.4.4-.9-.2-1.7-.5-2.6-.8ZM119.6,342.8c-1.6-.5-3.2-1.1-4.8-1.7,1.6.6,3.2,1.1,4.8,1.7ZM120.4,343.2c.9.3,1.8.6,2.7.9-1.2-.4-2.4-.8-3.6-1.2.3.1.6.2.9.3ZM114.8,341.1c-1.8-.7-3.5-1.4-5.3-2.1,1.8.7,3.5,1.4,5.3,2.1ZM110.8,12.6c-.1,0-.3.1-.4.2.4-.2.8-.3,1.3-.5-.3.1-.6.2-.9.3ZM108,13.8c.5-.2.9-.4,1.3-.6-.3.1-.6.2-.9.4-.2,0-.3.1-.4.2ZM77,30.7c-.3.2-.7.5-1,.7.6-.4,1.1-.8,1.7-1.2-.1.1-.3.2-.4.3,0,0-.2.1-.2.1ZM52.4,51c.3-.3.6-.6,1-1-.3.2-.5.5-.8.7,0,0-.1.1-.2.2ZM10.1,117.3c.2-.4.3-.9.5-1.3,0,.1-.1.3-.2.4-.1.3-.2.6-.3.9ZM9.3,119.5c0,0,0,.1,0,.2-.2.5-.3,1-.5,1.5.3-.9.6-1.7.9-2.6,0,.3-.2.5-.3.8,0,0,0,0,0,0ZM8.3,229.5c0,.1,0,.3.1.4-.3-.9-.6-1.8-.8-2.7.2.8.5,1.5.7,2.3Z"/>
  <path class="st4" d="M201.5,1.8h0c-1.1-.2-2.3-.3-3.5-.4-.9-.1-1.8-.2-2.7-.3-1-.1-2.1-.2-3.1-.3-1,0-2-.2-3-.2-.1,0-.2,0-.3,0-1,0-2-.2-3-.2-1,0-2.1-.1-3.2-.2-2.1,0-4.2-.1-6.3-.1s-1.7,0-2.6,0c-.7,0-1.3,0-2,0-.8,0-1.5,0-2.3,0-.7,0-1.3,0-2,0-.2,0-.3,0-.5,0-.7,0-1.3,0-2,.1-1.5.1-3,.2-4.5.4-.7,0-1.5.1-2.2.2-4.5.4-8.8,1.1-13.2,1.9-.7.1-1.4.3-2.2.4-.7.1-1.5.3-2.2.4-.7.1-1.4.3-2.1.4-1.1.2-2.1.5-3.2.7-2.1.5-4.2,1-6.3,1.6h0c-2,.5-3.9,1.1-5.8,1.7-.9.3-1.8.6-2.7.9h0c-.9.3-1.8.6-2.7.9-.9.3-1.7.6-2.6.9-.8.3-1.6.6-2.4.9,0,0-.1,0-.2,0-.2,0-.5.2-.7.3,0,0-.2,0-.3.1-.1,0-.2,0-.3.1-.4.2-.8.3-1.3.5,0,0-.1,0-.2,0-.3.1-.5.2-.8.3-.4.2-.9.4-1.3.6-.2,0-.4.1-.6.2-.4.1-.7.3-1,.4-.2,0-.5.2-.7.3-.2.1-.5.2-.7.3-.5.2-1.1.5-1.6.7-.6.3-1.1.5-1.7.8-.6.3-1.1.5-1.7.8-.7.3-1.3.6-1.9.9,0,0,0,0-.1,0-.6.3-1.3.6-1.9,1-.1,0-.3.1-.4.2-.5.3-1,.5-1.5.8-.4.2-.8.4-1.2.6-.1,0-.2.1-.3.2-.6.3-1.2.6-1.7.9-.3.2-.7.4-1,.6-.1,0-.2.1-.3.2-.2.1-.5.3-.7.4-.2,0-.3.2-.5.3-.4.2-.7.4-1.1.6,0,0-.1,0-.2.1-.4.2-.7.4-1.1.6-.5.3-1,.6-1.5.9-.5.3-1,.6-1.5.9-.3.2-.6.4-1,.6-.9.6-1.8,1.1-2.7,1.8-.1,0-.2.1-.3.2-.2.1-.4.3-.6.4-.2.1-.4.3-.6.4,0,0-.1,0-.2,0-.6.4-1.1.8-1.7,1.2-.3.2-.7.4-1,.7-.3.2-.6.4-1,.7-.2,0-.3.2-.5.3-1,.7-2,1.4-2.9,2.2,0,0-.2.1-.2.2-.5.4-1,.8-1.5,1.2-.5.4-1,.8-1.5,1.1l-.2.2c-.4.3-.9.7-1.3,1-.6.5-1.2,1-1.8,1.5,0,0,0,0-.1,0-.5.4-1,.8-1.4,1.2,0,0-.2.2-.3.2-.4.3-.8.7-1.2,1-.7.6-1.3,1.1-2,1.7,0,0,0,0-.1,0,0,0-.1.1-.2.2-.3.2-.5.5-.8.7-.2.2-.3.3-.5.5-.3.3-.6.6-.9.8-.2.2-.4.4-.6.6,0,0,0,.1-.1.2-.5.5-1,.9-1.4,1.4-.3.3-.6.6-.9.9-.3.3-.6.6-1,1,0,0,0,0,0,0l-.9.9c-.3.3-.6.6-.9.9,0,0,0,0-.1.1-.1.1-.2.3-.4.4-.1.1-.2.3-.4.4-.4.4-.8.8-1.2,1.3,0,0-.2.2-.3.3-.4.4-.8.8-1.1,1.2,0,0,0,0,0,0,0,0-.2.2-.3.3-.6.6-1.2,1.2-1.7,1.9-.6.7-1.2,1.3-1.8,2-.6.7-1.2,1.4-1.7,2-.6.7-1.2,1.4-1.7,2.1-.5.6-1.1,1.3-1.6,2,0,0,0,0,0,.1-.5.7-1.1,1.4-1.6,2.1-.5.7-1.1,1.4-1.6,2.1-.6.9-1.3,1.7-1.9,2.6-.4.6-.8,1.2-1.2,1.7-.3.4-.6.9-.9,1.3-.2.3-.4.6-.6.9-.4.6-.8,1.2-1.2,1.8-.1.1-.2.3-.3.5-.3.4-.5.8-.8,1.2,0,0,0,.1-.1.2-.2.3-.4.5-.5.8-.2.3-.3.5-.5.8-.4.6-.7,1.1-1.1,1.7,0,0,0,0,0,.1-.2.4-.4.7-.7,1.1-.2.3-.4.6-.5.9-.2.2-.3.5-.5.8-.3.5-.6,1-.8,1.4,0,.1-.1.2-.2.3,0,.1-.1.3-.2.4,0,0-.1.2-.2.3-.4.7-.8,1.4-1.1,2.1-.3.5-.6,1.1-.9,1.6,0,0,0,.1,0,.2-.3.7-.7,1.3-1,2-.1.2-.2.5-.4.7-.4.7-.7,1.4-1.1,2.1-.3.7-.6,1.3-.9,1.9,0,.1-.1.2-.2.3,0,.1-.1.2-.2.3-.2.5-.4,1-.7,1.4,0,0,0,.1,0,.2,0,0,0,.2,0,.2-.2.4-.4.8-.6,1.2-.3.6-.5,1.1-.8,1.7-.3.7-.6,1.3-.9,2-.1.3-.2.5-.3.8-.3.7-.6,1.5-.9,2.2-.3.8-.6,1.6-1,2.4,0,0,0,0,0,0-.3.8-.6,1.7-1,2.5-.2.4-.3.9-.5,1.3-.2.4-.3.9-.5,1.3-.3.9-.6,1.7-.9,2.6h0c-.6,1.7-1.1,3.5-1.6,5.2h0c-.5,1.8-1,3.5-1.5,5.3-.2.9-.5,1.9-.7,2.8-.2,1-.5,2-.7,3-.2,1.1-.5,2.1-.7,3.2-.1.7-.3,1.4-.4,2.2,0,.5-.2.9-.2,1.3,0,.4-.1.8-.2,1.2-.1.6-.2,1.2-.3,1.8-.1.8-.2,1.5-.4,2.2,0,.6-.2,1.3-.3,2-.2,1-.3,2-.4,3.1,0,.8-.2,1.6-.3,2.4,0,.1,0,.3,0,.5-.1,1-.2,2.1-.3,3.1-.1,1.5-.2,3-.3,4.5,0,.8,0,1.6-.1,2.4,0,.5,0,1,0,1.5,0,.4,0,.8,0,1.1,0,.5,0,1,0,1.5,0,.7,0,1.4,0,2.2,0,.9,0,1.8,0,2.7s0,1.8,0,2.7c0,.7,0,1.5,0,2.2,0,.5,0,1,0,1.5,0,.4,0,.8,0,1.1,0,.5,0,1,0,1.5,0,.8,0,1.6.1,2.4,0,1.5.2,3,.3,4.5,0,1,.2,2.1.3,3.1,0,.2,0,.3,0,.5,0,.8.2,1.6.3,2.4,0,.2,0,.5,0,.7.3,2.2.6,4.4,1,6.5.1.7.2,1.4.4,2.2,0,.3.1.7.2,1,0,.6.2,1.2.3,1.8.1.7.2,1.3.4,1.9.5,2.1.9,4.3,1.5,6.4h0c.2,1,.5,2,.8,3,.2.9.5,1.8.8,2.7.3,1,.6,2.1.9,3.1.3.9.5,1.8.8,2.7.3.9.6,1.8.9,2.7.4,1.2.8,2.4,1.3,3.6.2.5.4,1.1.6,1.6.5,1.2.9,2.4,1.4,3.5.2.6.5,1.2.8,1.9.4,1.1.9,2.1,1.4,3.2.3.8.7,1.6,1.1,2.4,1.6,3.6,3.4,7.1,5.3,10.6.4.8.9,1.6,1.3,2.4.3.5.5.9.8,1.4.3.5.6,1.1.9,1.6.4.7.8,1.3,1.2,2,.5.8,1,1.7,1.5,2.5.4.6.8,1.3,1.2,1.9.1.2.3.5.4.7.8,1.3,1.7,2.5,2.5,3.8,1.5,2.1,3,4.2,4.6,6.3.4.5.8,1,1.2,1.5,1,1.3,2.1,2.7,3.2,4,.5.6,1,1.2,1.4,1.7.1.1.2.3.3.4.5.6,1.1,1.3,1.7,1.9,0,0,0,0,0,0,.6.7,1.2,1.3,1.8,2,.6.7,1.2,1.4,1.8,2s1.2,1.3,1.9,2c.7.8,1.5,1.5,2.2,2.3.5.5,1.1,1.1,1.6,1.6,1.4,1.4,2.8,2.7,4.2,4,.6.6,1.2,1.1,1.8,1.6.8.7,1.6,1.5,2.5,2.2.5.5,1.1,1,1.6,1.4.8.7,1.6,1.3,2.3,1.9,1.3,1.1,2.7,2.1,4,3.2,3.8,2.9,7.8,5.7,11.8,8.3.8.5,1.6,1,2.4,1.6,0,0,0,0,0,0,.8.5,1.6,1,2.5,1.5.8.5,1.7,1,2.5,1.5.8.5,1.7,1,2.5,1.4,0,0,0,0,0,0,.8.5,1.7.9,2.5,1.3.8.4,1.6.8,2.4,1.2.1,0,.2.1.3.2.8.4,1.6.8,2.4,1.2.7.4,1.5.7,2.2,1.1,2.8,1.3,5.7,2.6,8.6,3.8,1.8.7,3.5,1.4,5.3,2.1,2.8,1,5.5,2,8.3,2.9h0c.7.2,1.4.4,2.1.7.3,0,.6.2.9.3.9.3,1.7.5,2.6.8.2,0,.5.1.7.2.7.2,1.4.4,2.2.6,2,.5,4,1,6.1,1.5,1.1.2,2.1.5,3.2.7,1.4.3,2.9.6,4.3.8,4.3.8,8.7,1.4,13.2,1.9.7,0,1.5.1,2.2.2,1.5.1,3,.2,4.5.3.7,0,1.3,0,2,.1.2,0,.3,0,.5,0,.7,0,1.4,0,2,0,.8,0,1.5,0,2.3,0,.7,0,1.3,0,2,0,.8,0,1.7,0,2.6,0,4.2,0,8.5-.1,12.7-.5,1.6-.1,3.3-.2,4.9-.4,1.6-.1,3.1-.3,4.7-.5.8-.1,1.7-.2,2.5-.4,0,0,.2,0,.2,0h0c85.6-12.1,151.4-85.6,151.4-174.3S287,13.9,201.5,1.8ZM176.4,313.4c-37.7,0-71.9-15.2-96.7-39.8-25.2-24.9-40.8-59.4-40.8-97.5s15.6-72.6,40.8-97.5c24.9-24.6,59.1-39.8,96.7-39.8,75.8,0,137.5,61.6,137.5,137.3s-61.7,137.3-137.5,137.3Z"/>
  <path class="st1" d="M46.7,240.9s0,0,0,0"/>
  <path class="st4" d="M176.4,69.7c-15.9,0-28.3,17-28.3,38.7s12.4,38.7,28.3,38.7,28.3-17,28.3-38.7-12.4-38.7-28.3-38.7ZM181.6,130.1c-1.7,1.3-3.4,2.1-5.1,2.1-6.3,0-13.3-9.7-13.3-23.7s7-23.7,13.3-23.7,3.4.7,5,2c4.5,3.5,8.3,11.5,8.3,21.7s-3.7,18.1-8.1,21.6Z"/>
  <path class="st0" d="M136.9,262c-.2,0-.3,0-.5.1.2,0,.3,0,.5-.1t0,0Z"/>
  <path class="st2" d="M176.4,38.8c-37.7,0-71.9,15.2-96.7,39.8-25.2,24.9-40.8,59.4-40.8,97.5s15.6,72.6,40.8,97.5c24.9,24.6,59.1,39.8,96.7,39.8,75.8,0,137.5-61.6,137.5-137.3S252.3,38.8,176.4,38.8ZM176.4,69.7c15.9,0,28.3,17,28.3,38.7s-12.4,38.7-28.3,38.7-28.3-17-28.3-38.7,12.4-38.7,28.3-38.7ZM98.7,112.7c13.1-6.9,27.5.6,35.4,15.2,8.7,15,6.3,31.2-4.5,38.2-12.5,8.1-29-4.1-35.4-15.2-8.7-15-6.9-32.2,4.5-38.2ZM254.5,256.4c-13.1,20.9-43.1,17-59.4,3.1-11.4-8.2-26.2-8.5-37.4,0-18.2,13.8-48.5,17.3-59.5-3.6-16.4-30.9,6.1-62.5,30.5-78.5,29.4-19.3,66-19.3,95.4,0,24.3,15.9,49.1,49.2,30.4,79ZM258.7,150.9c-9.7,17.2-25.8,20.7-35.4,15.2-11.2-6.5-13.2-23.2-4.5-38.2,7.9-14.6,22.6-21.5,35.4-15.2,11.6,5.7,13,23.1,4.5,38.2Z"/>
  <g>
    <path class="st2" d="M190.1,108.4c0,10.1-3.7,18.1-8.1,21.6-1.7,1.3-3.4,2.1-5.1,2.1-6.3,0-13.3-9.7-13.3-23.7s7-23.7,13.3-23.7,3.4.7,5,2c4.5,3.5,8.3,11.5,8.3,21.7Z"/>
    <path class="st4" d="M134.1,127.9c-7.9-14.6-22.3-22.1-35.4-15.2-11.4,6-13.2,23.2-4.5,38.2,6.4,11.1,22.9,23.3,35.4,15.2,10.8-7,13.2-23.2,4.5-38.2ZM106.3,125.7c3-1.7,7.1,1.2,10.2,4.3,2.5,2.5,4.4,5,4.7,5.4,3.8,6.6,4,12.7,2.5,15.8-.4.9-.9,1.5-1.5,1.8-2.8,1.6-10-1.3-14.9-9.7-4.8-8.4-3.8-16.1-1-17.7Z"/>
    <path class="st2" d="M123.6,151.2c-.4.9-.9,1.5-1.5,1.8-2.8,1.6-10-1.3-14.9-9.7-4.8-8.4-3.8-16.1-1-17.7,3-1.7,7.1,1.2,10.2,4.3,2.5,2.5,4.4,5,4.7,5.4,3.8,6.6,4,12.7,2.5,15.8Z"/>
    <path class="st4" d="M254.1,112.7c-12.8-6.3-27.5.6-35.4,15.2-8.7,15-6.7,31.7,4.5,38.2,9.5,5.5,25.7,2,35.4-15.2,8.5-15.1,7.1-32.5-4.5-38.2ZM245.7,143.4c-1.4,2.4-3,4.3-4.6,5.9-4,3.8-8.3,5-10.3,3.8-2.8-1.6-3.9-9.3,1-17.7,3.6-5.2,9.5-12.8,14.9-9.7.6.3,1.1.9,1.4,1.7,1.6,3.1,1.4,9.3-2.4,16Z"/>
    <path class="st2" d="M245.7,143.4c-1.4,2.4-3,4.3-4.6,5.9-4,3.8-8.3,5-10.3,3.8-2.8-1.6-3.9-9.3,1-17.7,3.6-5.2,9.5-12.8,14.9-9.7.6.3,1.1.9,1.4,1.7,1.6,3.1,1.4,9.3-2.4,16Z"/>
    <path d="M136.9,262c-.2,0-.3,0-.5.1.2,0,.3,0,.5-.1t0,0Z"/>
    <path class="st4" d="M224.2,177.4c-29.4-19.3-66-19.3-95.4,0-24.4,16-46.9,47.6-30.5,78.5,11.1,20.9,41.3,17.4,59.5,3.6,11.2-8.5,26-8.2,37.4,0,16.4,13.8,46.3,17.7,59.4-3.1,18.7-29.8-6.1-63.1-30.4-79ZM111,248.1c-5.2-8.6-4.5-21.6-.9-28.7,10.5-19.1,26.6-31.4,44.4-36.9,32-9.8,69.3,2.4,88.1,36.8,3.7,7.8,4.4,20.8-.9,29.2-8.2,13.1-28.3,7-37.1-.5-14.8-12.6-41.7-12.7-56.5,0-4.8,4.1-12.7,7.7-20.4,8.1-6.6.4-13-1.7-16.8-8ZM136.4,262.1c.2,0,.3,0,.5-.1t0,0c-.2,0-.3,0-.5.1Z"/>
    <path class="st2" d="M241.8,248.4c-8.2,13.1-28.3,7-37.1-.5-14.8-12.6-41.7-12.7-56.5,0-4.8,4.1-12.7,7.7-20.4,8.1-6.6.4-13-1.7-16.8-8-5.2-8.6-4.5-21.6-.9-28.7,10.5-19.1,26.6-31.4,44.4-36.9,32-9.8,69.3,2.4,88.1,36.8,3.7,7.8,4.4,20.8-.9,29.2Z"/>
  </g>
</svg>