<?xml version="1.0" encoding="UTF-8"?>
<svg id="Layer_1" xmlns="http://www.w3.org/2000/svg" version="1.1" viewBox="0 0 547.2 512">
  <!-- Generator: Adobe Illustrator 29.1.0, SVG Export Plug-In . SVG Version: 2.1.0 Build 142)  -->
  <defs>
    <style>
      .st0 {
        fill: #8db9c4;
      }

      .st1 {
        fill: #e7f0ef;
      }
    </style>
  </defs>
  <path class="st1" d="M273.7,50.7c-31,0-56.3,44.1-57.8,78.4,1.5-34.3,26.8-78.3,57.8-78.3s55.5,30.2,57.8,74.9c-2.2-44.7-27.3-75-57.8-75ZM94.2,143.6c-12.6.5-24,5.1-32.5,13.7-22.6,22.6-17.4,64.5,16.7,98.6,0,0,0,0,0,0h0c-34.1-34.2-39.3-76.1-16.7-98.7,8.5-8.5,19.9-13.1,32.4-13.7Z"/>
  <path class="st1" d="M519.4,123.2h.2c-33.1-33-89.1-38.9-140.5-4.7-5.3-66.9-48.8-115.8-105.4-115.8s-100.1,48.9-105.4,115.8c-19.4-12.9-39.4-20.1-58.6-22.3-17.4-3.3-40,2.9-40,2.9-16,4.4-30.3,12.6-41.9,24.2-42.7,42.7-35.5,114.3,16.7,166.5s34.2,25.3,54.1,28.2c-15.6,25-27.9,53.4-27.9,80.7,0,61.1,37,86.8,68,97.6,31.2,10.9,73.1,13,134.9,13s98.3-1.9,128.9-11.1c23.1-7.2,35.5-17.1,35.5-17.1,21-15.2,38.5-40.5,38.5-82.5s-12.3-55.7-27.9-80.7c19.9-2.9,38.4-12.5,54.1-28.2,52.2-52.2,59.4-123.8,16.7-166.5ZM215.9,129.1c1.5-34.3,26.8-78.4,57.8-78.4s55.6,30.3,57.8,75c.1,2.2.2,4.4.2,6.6h0c0,34.7-25.9,49.3-58,49.3s-56.3-13.7-57.8-46.1c0-1,0-2.1,0-3.2s0-2.1,0-3.2ZM78.4,256h0c0,0,0,0,0-.1-34.1-34.1-39.3-76-16.7-98.6,8.6-8.6,19.9-13.1,32.5-13.7,2,0,4.1,0,6.2,0,19.2,1.1,40.8,11.2,59.9,30.3,34.1,34.1,16.5,53.2-6.1,75.9-22.6,22.6-51.3,30.6-75.9,6.1ZM273.7,461.4c-33.8,0-61.4-.6-83.4-3.1-39-4.3-60.5-14.4-68.2-36.8-.4-1.3-.8-2.6-1.2-4-.3-1-.5-2.1-.7-3.2-.1-.7-.3-1.5-.4-2.2-.1-.7-.2-1.5-.3-2.3-.4-3.5-.7-7.2-.7-11.1,0-56,107.3-168.7,154.9-168.7s154.9,112.7,154.9,168.7-43.9,62.7-154.9,62.7ZM469,255.8h0c-24.5,24.6-53.2,16.6-75.8-6s-30.6-51.3-6.1-75.9c34.1-34.1,76-39.3,98.6-16.7,22.6,22.6,17.4,64.5-16.7,98.6Z"/>
  <path class="st0" d="M273.7,230c-47.6,0-154.9,112.7-154.9,168.7s.2,7.6.7,11.1c0,.8.2,1.5.3,2.3.1.8.2,1.5.4,2.2.2,1.1.5,2.2.7,3.2.4,1.4.8,2.7,1.2,4,7.7,22.4,29.2,32.5,68.2,36.8,22,2.5,49.6,3.1,83.4,3.1,111,0,154.9-6.7,154.9-62.7s-107.3-168.7-154.9-168.7ZM330.2,346.3l-61.2,61.2c-8,8-20.9,8-28.8,0l-30.6-30.6c-8-8-8-20.9,0-28.8,8-8,20.9-8,28.8,0l16.2,16.2,46.8-46.8c8-7.9,20.9-7.9,28.8,0s8,20.9,0,28.8Z"/>
  <path class="st1" d="M330.2,346.3l-61.2,61.2c-8,8-20.9,8-28.8,0l-30.6-30.6c-8-8-8-20.9,0-28.8,8-8,20.9-8,28.8,0l16.2,16.2,46.8-46.8c8-7.9,20.9-7.9,28.8,0,8,8,8,20.9,0,28.8h0Z"/>
  <path class="st0" d="M154.3,249.8h0c-22.6,22.6-51.2,30.5-75.8,6.2,0,0,0,0,0,0-34.1-34.1-39.3-76-16.7-98.6,8.6-8.6,19.9-13.1,32.5-13.7,2,0,4.1,0,6.2,0,19.2,1.2,40.7,11.2,59.8,30.3,34,34,16.5,53.1-6,75.8Z"/>
  <path class="st0" d="M469,255.8h0c-24.5,24.6-53.2,16.6-75.8-6s-30.6-51.3-6.1-75.9c34.1-34.1,76-39.3,98.6-16.7,22.6,22.6,17.4,64.5-16.7,98.6Z"/>
  <path class="st0" d="M331.7,132.3h0c0,34.7-25.9,49.3-58,49.3s-56.3-13.7-57.8-46.1c0-1,0-2.1,0-3.2s0-2.1,0-3.2c1.5-34.3,26.8-78.4,57.8-78.4s55.6,30.3,57.8,75c.1,2.2.2,4.4.2,6.6Z"/>
</svg>